<svg viewBox="0 0 456 256" xmlns="http://www.w3.org/2000/svg">
<path d="M427.111 256C423.375 256.005 419.675 255.272 416.224 253.842C412.772 252.411 409.638 250.312 407.001 247.666L228 68.6791L48.9991 247.666C43.6344 252.847 36.4493 255.714 28.9912 255.649C21.5332 255.585 14.399 252.593 9.12513 247.319C3.8513 242.045 0.859829 234.911 0.795021 227.453C0.730212 219.995 3.59725 212.81 8.77864 207.445L207.89 8.33426C213.224 3.00175 220.458 0.00610352 228 0.00610352C235.542 0.00610352 242.776 3.00175 248.11 8.33426L447.221 207.445C451.198 211.423 453.906 216.491 455.003 222.008C456.1 227.525 455.537 233.243 453.385 238.44C451.232 243.637 447.587 248.079 442.911 251.204C438.234 254.33 432.736 255.999 427.111 256Z"/>
</svg>
