<svg width="512" height="512" viewBox="0 0 512 512" fill="black" xmlns="http://www.w3.org/2000/svg">
<path fill-rule="evenodd" clip-rule="evenodd" d="M113.246 113.513C117.247 109.513 122.672 107.267 128.329 107.267C133.986 107.267 139.411 109.513 143.411 113.513L256.329 226.43L369.246 113.513C371.214 111.475 373.568 109.85 376.171 108.732C378.774 107.614 381.573 107.025 384.406 107.001C387.238 106.976 390.047 107.516 392.669 108.589C395.291 109.661 397.673 111.245 399.676 113.248C401.679 115.251 403.263 117.633 404.336 120.255C405.408 122.877 405.948 125.686 405.923 128.519C405.899 131.351 405.31 134.151 404.192 136.753C403.074 139.356 401.449 141.71 399.411 143.678L286.494 256.595L399.411 369.513C403.298 373.536 405.448 378.925 405.399 384.519C405.351 390.112 403.107 395.463 399.152 399.418C395.196 403.374 389.846 405.617 384.252 405.666C378.658 405.714 373.27 403.564 369.246 399.678L256.329 286.761L143.411 399.678C139.388 403.564 133.999 405.714 128.406 405.666C122.812 405.617 117.461 403.374 113.506 399.418C109.551 395.463 107.307 390.112 107.258 384.519C107.21 378.925 109.36 373.536 113.246 369.513L226.163 256.595L113.246 143.678C109.247 139.678 107 134.252 107 128.595C107 122.939 109.247 117.513 113.246 113.513Z" />
</svg>
