<svg viewBox="0 0 194 194" fill="black" xmlns="http://www.w3.org/2000/svg">
<path d="M188.36 165.64C189.86 167.127 191.05 168.897 191.862 170.847C192.675 172.797 193.093 174.888 193.093 177C193.093 179.112 192.675 181.204 191.862 183.153C191.05 185.103 189.86 186.873 188.36 188.36C186.873 189.86 185.103 191.05 183.153 191.862C181.203 192.675 179.112 193.093 177 193.093C174.888 193.093 172.797 192.675 170.847 191.862C168.897 191.05 167.127 189.86 165.64 188.36L97 119.56L28.36 188.36C26.8726 189.86 25.103 191.05 23.1532 191.862C21.2035 192.675 19.1122 193.093 17 193.093C14.8878 193.093 12.7965 192.675 10.8468 191.862C8.89702 191.05 7.12741 189.86 5.64 188.36C4.14034 186.873 2.95004 185.103 2.13774 183.153C1.32544 181.204 0.907227 179.112 0.907227 177C0.907227 174.888 1.32544 172.797 2.13774 170.847C2.95004 168.897 4.14034 167.127 5.64 165.64L74.44 97L5.64 28.36C2.62714 25.3472 0.93454 21.2609 0.93454 17C0.93454 12.7392 2.62714 8.65289 5.64 5.64003C8.65286 2.62717 12.7392 0.93457 17 0.93457C21.2608 0.93457 25.3471 2.62717 28.36 5.64003L97 74.44L165.64 5.64003C168.653 2.62717 172.739 0.93457 177 0.93457C181.261 0.93457 185.347 2.62717 188.36 5.64003C191.373 8.65289 193.065 12.7392 193.065 17C193.065 21.2609 191.373 25.3472 188.36 28.36L119.56 97L188.36 165.64Z" />
</svg>
