<svg width="103" height="410" viewBox="0 0 103 410" fill="black" xmlns="http://www.w3.org/2000/svg">
<path d="M51.2 102.4C37.6209 102.4 24.598 97.0057 14.9961 87.4039C5.39428 77.802 0 64.7791 0 51.2C0 37.6209 5.39428 24.598 14.9961 14.9961C24.598 5.39427 37.6209 0 51.2 0C64.7791 0 77.802 5.39427 87.4039 14.9961C97.0057 24.598 102.4 37.6209 102.4 51.2C102.4 64.7791 97.0057 77.802 87.4039 87.4039C77.802 97.0057 64.7791 102.4 51.2 102.4ZM51.2 256C37.6209 256 24.598 250.606 14.9961 241.004C5.39428 231.402 0 218.379 0 204.8C0 191.221 5.39428 178.198 14.9961 168.596C24.598 158.994 37.6209 153.6 51.2 153.6C64.7791 153.6 77.802 158.994 87.4039 168.596C97.0057 178.198 102.4 191.221 102.4 204.8C102.4 218.379 97.0057 231.402 87.4039 241.004C77.802 250.606 64.7791 256 51.2 256ZM51.2 409.6C37.6209 409.6 24.598 404.206 14.9961 394.604C5.39428 385.002 0 371.979 0 358.4C0 344.821 5.39428 331.798 14.9961 322.196C24.598 312.594 37.6209 307.2 51.2 307.2C64.7791 307.2 77.802 312.594 87.4039 322.196C97.0057 331.798 102.4 344.821 102.4 358.4C102.4 371.979 97.0057 385.002 87.4039 394.604C77.802 404.206 64.7791 409.6 51.2 409.6Z"/>
</svg>
