<svg viewBox="0 0 417 417" fill="black" xmlns="http://www.w3.org/2000/svg">
  <path
    d="M410.818 180.21L218.818 4.20958C215.866 1.50211 212.007 0 208.002 0C203.997 0 200.137 1.50211 197.186 4.20958L5.18564 180.21C3.63696 181.63 2.38322 183.341 1.49601 185.246C0.608811 187.151 0.105521 189.212 0.0148893 191.311C-0.0757425 193.411 0.24806 195.507 0.967801 197.482C1.68754 199.456 2.78912 201.269 4.20964 202.818C5.71257 204.438 7.53852 205.725 9.56963 206.596C11.6007 207.467 13.7919 207.902 16.0016 207.874V368.002C16.0016 380.732 21.0588 392.941 30.0605 401.943C39.0623 410.944 51.2712 416.002 64.0016 416.002H144.002C148.245 416.002 152.315 414.316 155.315 411.315C158.316 408.315 160.002 404.245 160.002 400.002V288.002C160.002 275.271 165.059 263.062 174.061 254.06C183.062 245.059 195.271 240.002 208.002 240.002C220.732 240.002 232.941 245.059 241.943 254.06C250.945 263.062 256.002 275.271 256.002 288.002V400.002C256.002 404.245 257.687 408.315 260.688 411.315C263.689 414.316 267.758 416.002 272.002 416.002H352.002C364.732 416.002 376.941 410.944 385.943 401.943C394.945 392.941 400.002 380.732 400.002 368.002V207.89C402.212 207.915 404.404 207.477 406.435 206.603C408.466 205.729 410.292 204.44 411.794 202.818C413.214 201.269 414.316 199.456 415.035 197.482C415.755 195.507 416.079 193.411 415.988 191.311C415.898 189.212 415.394 187.151 414.507 185.246C413.62 183.341 412.366 181.63 410.818 180.21ZM368.002 184.37V368.002C368.002 372.245 366.316 376.315 363.315 379.315C360.315 382.316 356.245 384.002 352.002 384.002H288.002V288.002C288.002 266.784 279.573 246.436 264.57 231.433C249.567 216.43 229.219 208.002 208.002 208.002C186.784 208.002 166.436 216.43 151.433 231.433C136.43 246.436 128.002 266.784 128.002 288.002V384.002H64.0016C59.7582 384.002 55.6885 382.316 52.6879 379.315C49.6874 376.315 48.0016 372.245 48.0016 368.002V184.37L208.002 37.6976L368.002 184.37Z"
  />
</svg>