<svg viewBox="0 0 428 342" fill="none" xmlns="http://www.w3.org/2000/svg">
<path d="M406 149.667H73.4987L186.416 36.7493C188.454 34.7814 190.079 32.4274 191.197 29.8246C192.315 27.2219 192.903 24.4225 192.928 21.5899C192.953 18.7573 192.413 15.9481 191.34 13.3263C190.268 10.7045 188.684 8.32261 186.68 6.31957C184.677 4.31652 182.296 2.73246 179.674 1.6598C177.052 0.587138 174.243 0.047373 171.41 0.0719877C168.578 0.0966025 165.778 0.68511 163.175 1.80317C160.573 2.92123 158.219 4.54645 156.251 6.584L6.91737 155.917C2.91799 159.918 0.671265 165.343 0.671265 171C0.671265 176.657 2.91799 182.082 6.91737 186.083L156.251 335.416C160.274 339.302 165.663 341.452 171.257 341.404C176.85 341.355 182.201 339.112 186.156 335.156C190.112 331.201 192.355 325.85 192.404 320.257C192.452 314.663 190.302 309.274 186.416 305.251L73.4987 192.333H406C411.658 192.333 417.084 190.086 421.085 186.085C425.086 182.084 427.333 176.658 427.333 171C427.333 165.342 425.086 159.916 421.085 155.915C417.084 151.914 411.658 149.667 406 149.667Z" fill="black"/>
</svg>
