<svg width="24" height="24" viewBox="0 0 24 24" fill="none" xmlns="http://www.w3.org/2000/svg">
<g clip-path="url(#clip0_445_34)">
<path fill-rule="evenodd" clip-rule="evenodd" d="M15.2939 5.17106C15.5246 4.93228 15.8004 4.74183 16.1054 4.61081C16.4104 4.47978 16.7385 4.41082 17.0704 4.40793C17.4024 4.40505 17.7316 4.4683 18.0388 4.59401C18.3461 4.71971 18.6252 4.90534 18.8599 5.14007C19.0947 5.3748 19.2803 5.65393 19.406 5.96117C19.5317 6.26842 19.595 6.59761 19.5921 6.92956C19.5892 7.26151 19.5202 7.58956 19.3892 7.89457C19.2582 8.19958 19.0677 8.47544 18.8289 8.70606L15.0789 12.4561C14.6101 12.9247 13.9743 13.188 13.3114 13.188C12.6485 13.188 12.0128 12.9247 11.5439 12.4561C11.3082 12.2284 10.9924 12.1024 10.6647 12.1052C10.3369 12.1081 10.0234 12.2395 9.79167 12.4713C9.55991 12.703 9.42845 13.0166 9.4256 13.3443C9.42275 13.6721 9.54874 13.9878 9.77644 14.2236C10.7141 15.1609 11.9856 15.6875 13.3114 15.6875C14.6373 15.6875 15.9088 15.1609 16.8464 14.2236L20.5964 10.4736C21.5072 9.53055 22.0112 8.26754 21.9998 6.95655C21.9884 5.64557 21.4626 4.39151 20.5355 3.46447C19.6085 2.53743 18.3544 2.01158 17.0434 2.00019C15.7325 1.9888 14.4695 2.49277 13.5264 3.40356L11.6514 5.27856C11.5321 5.39387 11.4368 5.5318 11.3713 5.6843C11.3058 5.83681 11.2713 6.00083 11.2699 6.16681C11.2684 6.33278 11.3001 6.49738 11.3629 6.651C11.4258 6.80462 11.5186 6.94419 11.6359 7.06155C11.7533 7.17892 11.8929 7.27174 12.0465 7.33459C12.2001 7.39744 12.3647 7.42907 12.5307 7.42762C12.6967 7.42618 12.8607 7.3917 13.0132 7.32619C13.1657 7.26068 13.3036 7.16545 13.4189 7.04606L15.2939 5.17106ZM9.04394 11.4211C9.51276 10.9524 10.1485 10.6891 10.8114 10.6891C11.4744 10.6891 12.1101 10.9524 12.5789 11.4211C12.6942 11.5404 12.8322 11.6357 12.9847 11.7012C13.1372 11.7667 13.3012 11.8012 13.4672 11.8026C13.6332 11.8041 13.7978 11.7724 13.9514 11.7096C14.105 11.6467 14.2446 11.5539 14.3619 11.4366C14.4793 11.3192 14.5721 11.1796 14.635 11.026C14.6978 10.8724 14.7294 10.7078 14.728 10.5418C14.7266 10.3758 14.6921 10.2118 14.6266 10.0593C14.5611 9.9068 14.4658 9.76887 14.3464 9.65356C13.4088 8.7162 12.1373 8.18963 10.8114 8.18963C9.48562 8.18963 8.21408 8.7162 7.27644 9.65356L3.52644 13.4036C3.04889 13.8648 2.66798 14.4165 2.40593 15.0265C2.14389 15.6366 2.00596 16.2927 2.00019 16.9566C1.99442 17.6204 2.12093 18.2788 2.37233 18.8933C2.62374 19.5078 2.995 20.0661 3.46447 20.5355C3.93393 21.005 4.49219 21.3763 5.10667 21.6277C5.72115 21.8791 6.37955 22.0056 7.04345 21.9998C7.70734 21.994 8.36344 21.8561 8.97346 21.5941C9.58348 21.332 10.1352 20.9511 10.5964 20.4736L12.4714 18.5986C12.5908 18.4833 12.6861 18.3453 12.7516 18.1928C12.8171 18.0403 12.8516 17.8763 12.853 17.7103C12.8544 17.5443 12.8228 17.3797 12.76 17.2261C12.6971 17.0725 12.6043 16.9329 12.4869 16.8156C12.3696 16.6982 12.23 16.6054 12.0764 16.5425C11.9228 16.4797 11.7582 16.4481 11.5922 16.4495C11.4262 16.4509 11.2622 16.4854 11.1097 16.5509C10.9572 16.6164 10.8192 16.7117 10.7039 16.8311L8.82894 18.7061C8.59832 18.9448 8.32246 19.1353 8.01745 19.2663C7.71244 19.3973 7.38439 19.4663 7.05244 19.4692C6.7205 19.4721 6.3913 19.4088 6.08406 19.2831C5.77681 19.1574 5.49769 18.9718 5.26295 18.737C5.02822 18.5023 4.84259 18.2232 4.71689 17.9159C4.59118 17.6087 4.52793 17.2795 4.53081 16.9476C4.5337 16.6156 4.60267 16.2876 4.73369 15.9825C4.86471 15.6775 5.05517 15.4017 5.29394 15.1711L9.04394 11.4211Z" fill="black"/>
</g>
<defs>
<clipPath id="clip0_445_34">
<rect width="24" height="24" fill="white"/>
</clipPath>
</defs>
</svg>
