<svg width="512" height="512" viewBox="0 0 512 512" fill="black" xmlns="http://www.w3.org/2000/svg">
<g clip-path="url(#clip0_412_36)">
<path d="M342.384 271.352C319.344 235.41 280.106 213.949 237.419 213.949C194.732 213.949 155.493 235.41 132.458 271.352L76.9416 357.957C67.7316 372.324 63.4816 388.926 64.6486 405.953C65.8166 422.984 72.2976 438.843 83.3876 451.828C94.4846 464.801 109.149 473.668 125.794 477.473C142.438 481.277 159.501 479.653 175.134 472.781L176.181 472.316C215.517 455.371 260.466 455.527 299.701 472.781C309.821 477.231 320.544 479.481 331.364 479.481C337.247 479.481 343.165 478.813 349.028 477.477C365.673 473.676 380.337 464.809 391.438 451.832C402.532 438.859 409.017 422.996 410.188 405.961C411.36 388.926 407.11 372.328 397.899 357.953L342.384 271.352ZM91.8956 271.238C108.411 264.895 120.958 251.586 127.224 233.762C133.189 216.801 132.7 197.652 125.844 179.84C118.985 162.04 106.509 147.508 90.7116 138.918C74.1176 129.898 55.8876 128.43 39.3986 134.785C6.22763 147.539 -8.99537 188.531 5.46863 226.184C17.0236 256.152 43.9736 275.07 71.2186 275.07C78.2883 275.079 85.2986 273.78 91.8956 271.238ZM199.614 203.387C241.083 203.387 274.821 164.949 274.821 117.703C274.821 70.445 241.083 32 199.614 32C158.149 32 124.415 70.445 124.415 117.703C124.415 164.949 158.148 203.387 199.614 203.387ZM329.497 224.438H329.501C335.747 226.514 342.286 227.57 348.868 227.566C379.11 227.566 408.583 205.555 419.829 171.726C426.306 152.254 425.879 131.664 418.629 113.754C411.044 95.004 396.985 81.394 379.04 75.43C361.09 69.465 341.68 71.953 324.38 82.43C307.853 92.437 295.188 108.676 288.72 128.148C275.067 169.227 293.36 212.422 329.497 224.438ZM487.876 214.438L487.864 214.426C459.267 193.301 416.497 202.457 392.517 234.848C368.56 267.254 372.306 310.82 400.86 331.961C411.274 339.676 423.58 343.363 436.173 343.363C458.123 343.363 480.958 332.16 496.223 311.559C520.177 279.152 516.435 235.586 487.876 214.437V214.438Z"/>
</g>
<defs>
<clipPath id="clip0_412_36">
<rect width="512" height="512"/>
</clipPath>
</defs>
</svg>
