<svg width="512" height="512" viewBox="0 0 512 512" fill="black" xmlns="http://www.w3.org/2000/svg">
<path fill-rule="evenodd" clip-rule="evenodd" d="M77 127.6C77 120.81 79.6971 114.299 84.4981 109.498C89.299 104.697 95.8104 102 102.6 102H409.8C416.59 102 423.101 104.697 427.902 109.498C432.703 114.299 435.4 120.81 435.4 127.6C435.4 134.39 432.703 140.901 427.902 145.702C423.101 150.503 416.59 153.2 409.8 153.2H102.6C95.8104 153.2 89.299 150.503 84.4981 145.702C79.6971 140.901 77 134.39 77 127.6ZM77 255.6C77 248.81 79.6971 242.299 84.4981 237.498C89.299 232.697 95.8104 230 102.6 230H409.8C416.59 230 423.101 232.697 427.902 237.498C432.703 242.299 435.4 248.81 435.4 255.6C435.4 262.39 432.703 268.901 427.902 273.702C423.101 278.503 416.59 281.2 409.8 281.2H102.6C95.8104 281.2 89.299 278.503 84.4981 273.702C79.6971 268.901 77 262.39 77 255.6ZM77 383.6C77 376.81 79.6971 370.299 84.4981 365.498C89.299 360.697 95.8104 358 102.6 358H409.8C416.59 358 423.101 360.697 427.902 365.498C432.703 370.299 435.4 376.81 435.4 383.6C435.4 390.39 432.703 396.901 427.902 401.702C423.101 406.503 416.59 409.2 409.8 409.2H102.6C95.8104 409.2 89.299 406.503 84.4981 401.702C79.6971 396.901 77 390.39 77 383.6Z" />
</svg>
