<svg width="512" height="512" viewBox="0 0 512 512" fill="black" xmlns="http://www.w3.org/2000/svg">
<g clip-path="url(#clip0_351_12)">
<path d="M131.879 217.212C110.491 217.212 93.0908 234.612 93.0908 256C93.0908 277.388 110.491 294.788 131.879 294.788C153.266 294.788 170.667 277.388 170.667 256C170.667 234.612 153.266 217.212 131.879 217.212ZM256 217.212C234.612 217.212 217.212 234.612 217.212 256C217.212 277.388 234.612 294.788 256 294.788C277.388 294.788 294.788 277.388 294.788 256C294.788 234.612 277.388 217.212 256 217.212ZM380.121 217.212C358.733 217.212 341.333 234.612 341.333 256C341.333 277.388 358.733 294.788 380.121 294.788C401.509 294.788 418.909 277.388 418.909 256C418.909 234.612 401.509 217.212 380.121 217.212Z"/>
<path d="M256 0C114.842 0 0 114.842 0 256C0 397.158 114.842 512 256 512C397.158 512 512 397.158 512 256C512 114.842 397.158 0 256 0ZM256 465.455C140.507 465.455 46.5455 371.493 46.5455 256C46.5455 140.507 140.507 46.5455 256 46.5455C371.493 46.5455 465.455 140.507 465.455 256C465.455 371.493 371.493 465.455 256 465.455Z"/>
</g>
<defs>
<clipPath id="clip0_351_12">
<rect width="512" height="512" fill="white"/>
</clipPath>
</defs>
</svg>
