<svg width="16" height="16" viewBox="0 0 16 16" fill="black" xmlns="http://www.w3.org/2000/svg">
<g clip-path="url(#clip0_434_2)">
<path d="M11.0905 4.68547C11.0114 4.58064 10.9124 4.4924 10.7992 4.42581C10.686 4.35923 10.5608 4.31559 10.4308 4.29739C10.3007 4.27919 10.1683 4.28678 10.0412 4.31974C9.91407 4.3527 9.79468 4.41037 9.68984 4.48947C9.585 4.56857 9.49677 4.66755 9.43018 4.78075C9.36359 4.89395 9.31995 5.01915 9.30175 5.14921C9.28355 5.27928 9.29115 5.41165 9.3241 5.53878C9.35706 5.66591 9.41474 5.7853 9.49384 5.89014C9.95867 6.49781 10.2164 7.23851 10.2292 8.00347C10.2163 8.76985 9.95807 9.51192 9.4925 10.1208C9.41092 10.2254 9.35098 10.3453 9.31617 10.4733C9.28136 10.6013 9.27237 10.735 9.28973 10.8665C9.30709 10.9981 9.35046 11.1248 9.4173 11.2395C9.48414 11.3541 9.57312 11.4542 9.67905 11.5341C9.78499 11.614 9.90576 11.672 10.0343 11.7047C10.1629 11.7375 10.2967 11.7443 10.428 11.7248C10.5592 11.7054 10.6852 11.66 10.7988 11.5913C10.9123 11.5226 11.011 11.432 11.0892 11.3248C11.8155 10.3688 12.2151 9.20465 12.2292 8.00414C12.2154 6.80442 11.8162 5.64094 11.0905 4.68547ZM13.5772 3.13081C13.4951 3.02651 13.3931 2.9396 13.2771 2.87513C13.161 2.81067 13.0334 2.76994 12.9014 2.75533C12.7695 2.74071 12.636 2.75251 12.5087 2.79002C12.3814 2.82753 12.2628 2.89 12.1599 2.97381C12.057 3.05761 11.9718 3.16106 11.9093 3.27813C11.8467 3.3952 11.8081 3.52355 11.7957 3.65568C11.7833 3.78782 11.7973 3.92111 11.8369 4.04778C11.8766 4.17445 11.941 4.29196 12.0265 4.39347C12.8538 5.41715 13.3139 6.68874 13.3332 8.00481C13.3149 9.32065 12.8547 10.5921 12.0265 11.6148C11.8643 11.821 11.7895 12.0826 11.8184 12.3434C11.8473 12.6041 11.9775 12.843 12.1809 13.0087C12.3843 13.1743 12.6447 13.2534 12.9059 13.2289C13.1671 13.2043 13.4082 13.0781 13.5772 12.8775C14.7021 11.5013 15.3221 9.78154 15.3338 8.00414C15.3215 6.22684 14.7017 4.50721 13.5772 3.13081ZM7.60184 0.722141C7.48253 0.670373 7.3507 0.654593 7.22255 0.676741C7.0944 0.698889 6.97551 0.758 6.8805 0.846807L3.50984 4.00014H1.33317C1.15636 4.00014 0.98679 4.07038 0.861766 4.1954C0.736742 4.32043 0.666504 4.49 0.666504 4.66681V11.3355C0.666504 11.5123 0.736742 11.6819 0.861766 11.8069C0.98679 11.9319 1.15636 12.0021 1.33317 12.0021H3.50984L6.84984 15.1235L6.86317 15.1375C6.96059 15.2357 7.08615 15.3012 7.22246 15.3249C7.35877 15.3486 7.49907 15.3292 7.6239 15.2696C7.74874 15.21 7.85193 15.113 7.91917 14.9921C7.98641 14.8712 8.01437 14.7323 7.99917 14.5948L8.00317 1.33347C8.00312 1.20355 7.96511 1.07648 7.89381 0.967867C7.82251 0.859258 7.72103 0.773849 7.60184 0.722141Z" />
</g>
<defs>
<clipPath id="clip0_434_2">
<rect width="16" height="16" fill="white"/>
</clipPath>
</defs>
</svg>
