<svg viewBox="0 0 512 512" fill="black" xmlns="http://www.w3.org/2000/svg">
<path d="M476.373 207.573C472.359 202.69 467.311 198.76 461.592 196.067C455.873 193.373 449.628 191.984 443.307 192H184.32C169.536 192.007 155.21 197.132 143.777 206.504C132.344 215.877 124.507 228.918 121.6 243.413L89.1733 405.333H85.3333C79.6754 405.333 74.2491 403.086 70.2484 399.085C66.2476 395.084 64 389.658 64 384V128C64 122.342 66.2476 116.916 70.2484 112.915C74.2491 108.914 79.6754 106.667 85.3333 106.667H164.267L222.933 145.707C226.404 148.04 230.485 149.301 234.667 149.333H362.667C368.325 149.333 373.751 151.581 377.752 155.582C381.752 159.583 384 165.009 384 170.667H426.667C426.667 153.693 419.924 137.414 407.921 125.412C395.919 113.41 379.641 106.667 362.667 106.667H241.067L182.4 67.6267C178.929 65.2938 174.849 64.0327 170.667 64H85.3333C68.3595 64 52.0808 70.7428 40.0785 82.7452C28.0762 94.7475 21.3333 111.026 21.3333 128V384C21.3333 400.974 28.0762 417.253 40.0785 429.255C52.0808 441.257 68.3595 448 85.3333 448H391.68C406.464 447.993 420.789 442.868 432.223 433.496C443.656 424.123 451.492 411.082 454.4 396.587L485.12 242.987C486.37 236.804 486.234 230.422 484.722 224.298C483.21 218.175 480.358 212.463 476.373 207.573ZM412.373 388.267C411.376 393.158 408.695 397.544 404.797 400.663C400.899 403.781 396.031 405.434 391.04 405.333H132.693L163.413 251.733C164.411 246.842 167.092 242.456 170.99 239.337C174.888 236.219 179.756 234.566 184.747 234.667H443.307L412.373 388.267Z" />
</svg>
