<svg width="427" height="427" viewBox="0 0 427 427" fill="black" xmlns="http://www.w3.org/2000/svg">
<g clip-path="url(#clip0_420_55)">
<mask id="mask0_420_55" style="mask-type:luminance" maskUnits="userSpaceOnUse" x="1" y="0" width="427" height="427">
<path d="M427.667 0H1V426.667H427.667V0Z" fill="white"/>
</mask>
<g mask="url(#mask0_420_55)">
<path d="M411.668 229.332H17C8.168 229.332 1 222.164 1 213.332C1 204.5 8.168 197.332 17 197.332H411.668C420.5 197.332 427.668 204.5 427.668 213.332C427.668 222.164 420.5 229.332 411.668 229.332Z" />
<path d="M214.332 426.668C205.5 426.668 198.332 419.5 198.332 410.668V16C198.332 7.168 205.5 0 214.332 0C223.164 0 230.332 7.168 230.332 16V410.668C230.332 419.5 223.164 426.668 214.332 426.668Z" />
</g>
</g>
<defs>
<clipPath id="clip0_420_55">
<rect width="427" height="427" fill="white"/>
</clipPath>
</defs>
</svg>
