<svg width="16" height="16" viewBox="0 0 16 16" fill="black" xmlns="http://www.w3.org/2000/svg">
<g clip-path="url(#clip0_434_4)">
<path fill-rule="evenodd" clip-rule="evenodd" d="M0.49987 4.43333C0.233203 4.43333 -0.000130171 4.66667 -0.000130171 4.93333V11.0667C-0.000130171 11.3333 0.233203 11.5667 0.49987 11.5667H3.39987L7.69987 15.8667C7.99987 16.1667 8.5332 15.9667 8.5332 15.5333V12.2667C8.5332 12.1333 8.46654 12 8.39987 11.9L1.06654 4.56667C0.966537 4.46667 0.833203 4.43333 0.69987 4.43333H0.49987ZM16.0999 14.9L14.2665 13.0667C14.9665 12.2 15.9999 10.4667 15.9999 8C15.9999 4.2 13.5999 2.2 13.5999 2.2C13.3999 2 13.0665 2 12.8665 2.2L12.3999 2.66667C12.1999 2.86667 12.1999 3.2 12.3999 3.4C12.3999 3.4 14.2999 5.06667 14.2999 8C14.2999 9.8 13.5999 11.1 13.0332 11.8667L11.8332 10.6667C12.1999 10.1 12.5999 9.2 12.5999 8C12.5999 5.73333 11.2332 4.56667 11.2332 4.56667C11.0332 4.36667 10.6999 4.36667 10.4999 4.56667L10.0332 5.03333C9.8332 5.23333 9.8332 5.56667 10.0332 5.76667C10.0332 5.76667 10.8999 6.43333 10.8999 8C10.8999 8.6 10.7665 9.06667 10.5999 9.43333L8.49987 7.33333V0.466667C8.49987 0.0333334 7.96654 -0.166667 7.66654 0.133333L4.49987 3.33333L1.09987 -0.1C0.89987 -0.3 0.59987 -0.3 0.39987 -0.1L-0.0667969 0.366667C-0.266797 0.566667 -0.266797 0.866667 -0.0667969 1.06667L1.3332 2.53333L10.2665 11.4667L14.8999 16.1C15.0999 16.3 15.3999 16.3 15.5999 16.1L16.0665 15.6333C16.2999 15.4333 16.2999 15.1 16.0999 14.9Z" />
</g>
<defs>
<clipPath id="clip0_434_4">
<rect width="16" height="16" fill="white"/>
</clipPath>
</defs>
</svg>
