<svg viewBox="0 0 512 459" fill="none" xmlns="http://www.w3.org/2000/svg">
<path d="M504.251 372.83L305.495 28.576C295.164 10.682 276.66 0 255.999 0C235.338 0 216.834 10.683 206.503 28.576L7.74825 372.83C-2.58275 390.724 -2.58275 412.089 7.74825 429.983C18.0793 447.876 36.5823 458.559 57.2443 458.559H454.755C475.416 458.559 493.92 447.876 504.251 429.983C514.581 412.089 514.581 390.724 504.251 372.83ZM478.251 414.971C473.346 423.465 464.563 428.536 454.755 428.536H57.2443C47.4363 428.536 38.6523 423.465 33.7483 414.971C28.8443 406.477 28.8443 396.334 33.7483 387.84L232.503 43.586C237.408 35.092 246.191 30.021 255.999 30.021C265.807 30.021 274.591 35.092 279.495 43.586L478.251 387.84C483.155 396.334 483.155 406.477 478.251 414.971Z" fill="black"/>
<path d="M255.999 328.463C244.963 328.463 235.984 337.442 235.984 348.478C235.984 359.514 244.963 368.493 255.999 368.493C267.035 368.493 276.014 359.514 276.014 348.478C276.014 337.442 267.035 328.463 255.999 328.463ZM240.987 143.324H271.009V298.439H240.987V143.324Z" fill="black"/>
</svg>
